# xmcd
#
# Track frame offsets:
#	150
#	17550
#	31612
#	49875
#	63387
#	78112
#	96712
#	111350
#	132737
#	142700
#	158862
#	172775
#
# Disc length: 2522 seconds
#
# Revision: 1
# Processed by: cddbd v1.5.1PL0 Copyright (c) Steve Scherf et al.
# Submitted via: audiograbber 1.83.01
#
DISCID=9609d80c
DTITLE=Michael Pewny - Vienna Boogie Woogie
DYEAR=1994
DGENRE=Boogie Woogie
TTITLE0=Vienna Boogie Woogie
TTITLE1=Sweet Sixteen Bars
TTITLE2=Chicago Stomp
TTITLE3=Bear Cat Crawl
TTITLE4=Honky Tonk Train Blues
TTITLE5=Rolling Boogie Woogie
TTITLE6=Mr. Freddie Blues
TTITLE7=Back to Harlem
TTITLE8=Hamp's Boogie
TTITLE9=Yancey Special
TTITLE10=How Long Blues
TTITLE11=No Time Without Boogie
EXTD=Torsten Zwingenberger (Drums)
EXTT0=
EXTT1=
EXTT2=
EXTT3=
EXTT4=
EXTT5=
EXTT6=
EXTT7=
EXTT8=
EXTT9=
EXTT10=
EXTT11=
PLAYORDER=
